<svg width="1140" height="374" viewBox="0 0 1140 374" fill="none" xmlns="http://www.w3.org/2000/svg">
<path d="M725.577 -0.000648499C644.206 -0.000648499 579.867 26.6597 517.419 52.5636C455.513 78.2785 391.714 104.75 311.424 104.75C231.135 104.75 167.336 78.2785 105.429 52.5636C72.1783 38.7608 38.1161 24.5798 1.62096 14.5585L0.269287 17.2057C36.4941 27.2269 70.5563 41.2188 103.537 55.0217C165.714 80.9256 230.324 107.586 311.695 107.586C393.065 107.586 457.405 80.9256 519.852 55.0217C581.759 29.3068 645.558 2.83556 725.847 2.83556C806.137 2.83556 870.206 29.3068 931.842 55.0217C994.019 80.9256 1058.63 107.586 1140 107.586V104.75C1059.71 104.75 995.641 78.2785 934.005 52.5636C871.287 26.6597 806.948 -0.000648499 725.577 -0.000648499Z" fill="#7587C7" fill-opacity="0.02"/>
<path d="M725.578 19.097C644.207 19.097 579.868 45.7573 517.42 71.6613C455.514 97.3762 391.715 123.847 311.425 123.847C231.136 123.847 167.067 97.3762 105.43 71.6613C72.1793 57.8585 37.8468 43.6775 1.35167 33.6562L0 36.3033C36.2248 46.3246 70.287 60.3165 103.268 74.1194C165.445 100.023 230.055 126.684 311.425 126.684C392.796 126.684 457.136 100.023 519.583 74.1194C581.49 48.4045 645.289 21.9332 725.578 21.9332C805.867 21.9332 869.937 48.4045 931.573 74.1194C993.75 100.023 1058.36 126.684 1139.73 126.684V123.847C1059.44 123.847 995.372 97.3762 933.736 71.6613C871.288 45.7573 806.949 19.097 725.578 19.097Z" fill="#7587C7" fill-opacity="0.02"/>
<path d="M725.578 38.0052C644.207 38.0052 579.868 64.6655 517.42 90.5695C455.514 116.284 391.715 142.756 311.425 142.756C231.136 142.756 167.337 116.284 105.43 90.5695C72.1793 76.7667 37.8468 62.5857 1.35167 52.5644L0 55.2115C36.2248 65.2328 70.287 79.2247 103.268 93.0276C165.445 118.932 230.055 145.592 311.425 145.592C392.796 145.592 457.136 118.932 519.583 93.0276C581.49 67.3127 645.289 40.8414 725.578 40.8414C805.867 40.8414 869.937 67.3127 931.573 93.0276C993.75 118.932 1058.36 145.592 1139.73 145.592V142.756C1059.44 142.756 995.372 116.284 933.736 90.5695C871.288 64.6655 806.949 38.0052 725.578 38.0052Z" fill="#7587C7" fill-opacity="0.02"/>
<path d="M725.577 57.101C644.206 57.101 579.867 83.7612 517.419 109.665C455.513 135.38 391.714 161.851 311.424 161.851C231.135 161.851 167.066 135.38 105.429 109.665C72.1783 95.8623 38.1161 81.6814 1.62096 71.6601L0.269287 74.3072C36.4941 84.3285 70.5563 98.3204 103.537 112.123C165.714 138.027 230.324 164.688 311.695 164.688C393.065 164.688 457.405 138.027 519.852 112.123C581.759 86.4083 645.558 59.9371 725.847 59.9371C806.137 59.9371 870.206 86.4083 931.842 112.123C994.019 138.027 1058.63 164.688 1140 164.688V161.851C1059.71 161.851 995.641 135.38 934.005 109.665C871.287 83.7612 806.948 57.101 725.577 57.101Z" fill="#7587C7" fill-opacity="0.02"/>
<path d="M725.577 76.0092C644.206 76.0092 579.867 102.669 517.419 128.573C455.513 154.288 391.714 180.76 311.424 180.76C231.135 180.76 167.336 154.288 105.429 128.573C72.1783 114.771 38.1161 100.59 1.62096 90.5683L0.269287 93.2154C36.4941 103.237 70.5563 117.229 103.537 131.031C165.714 156.935 230.324 183.596 311.695 183.596C393.065 183.596 457.405 156.935 519.852 131.031C581.759 105.317 645.558 78.8454 725.847 78.8454C806.137 78.8454 870.206 105.317 931.842 131.031C994.019 156.935 1058.63 183.596 1140 183.596V180.76C1059.71 180.76 995.641 154.288 934.005 128.573C871.287 102.858 806.948 76.0092 725.577 76.0092Z" fill="#7587C7" fill-opacity="0.02"/>
<path d="M725.577 95.1068C644.206 95.1068 579.867 121.767 517.419 147.671C455.513 173.386 391.714 199.857 311.424 199.857C231.135 199.857 167.336 173.386 105.429 147.671C72.1783 133.868 38.1161 119.687 1.62096 109.666L0.269287 112.313C36.4941 122.334 70.5563 136.326 103.537 150.129C165.714 176.033 230.324 202.693 311.695 202.693C393.065 202.693 457.405 176.033 519.852 150.129C581.759 124.414 645.558 97.943 725.847 97.943C806.137 97.943 870.206 124.414 931.842 150.129C994.019 176.033 1058.63 202.693 1140 202.693V199.857C1059.71 199.857 995.641 173.386 934.005 147.671C871.287 121.767 806.948 95.1068 725.577 95.1068Z" fill="#7587C7" fill-opacity="0.02"/>
<path d="M725.578 114.203C644.207 114.203 579.868 140.864 517.42 166.768C455.514 192.483 391.715 218.954 311.425 218.954C231.136 218.954 167.337 192.483 105.43 166.768C72.1793 152.965 37.8468 138.784 1.35167 128.763L0 131.41C36.2248 141.431 70.287 155.423 103.268 169.226C165.445 195.13 230.055 221.79 311.425 221.79C392.796 221.79 457.136 195.13 519.583 169.226C581.49 143.511 645.289 117.04 725.578 117.04C805.867 117.04 869.937 143.511 931.573 169.226C993.75 195.13 1058.36 221.79 1139.73 221.79V218.954C1059.44 218.954 995.372 192.483 933.736 166.768C871.288 140.864 806.949 114.203 725.578 114.203Z" fill="#7587C7" fill-opacity="0.02"/>
<path d="M725.578 133.112C644.207 133.112 579.868 159.772 517.42 185.676C455.514 211.391 391.715 237.862 311.425 237.862C231.136 237.862 167.337 211.391 105.43 185.676C72.1793 171.873 37.8468 157.692 1.35167 147.671L0 150.318C36.2248 160.339 70.287 174.331 103.268 188.134C165.445 214.038 230.055 240.698 311.425 240.698C392.796 240.698 457.136 214.038 519.583 188.134C581.49 162.419 645.289 135.948 725.578 135.948C805.867 135.948 869.937 162.419 931.573 188.134C993.75 214.038 1058.36 240.698 1139.73 240.698V237.862C1059.44 237.862 995.372 211.391 933.736 185.676C871.288 159.961 806.949 133.112 725.578 133.112Z" fill="#7587C7" fill-opacity="0.02"/>
<path d="M725.577 152.208C644.206 152.208 579.867 178.869 517.419 204.773C455.513 230.487 391.714 256.959 311.424 256.959C231.135 256.959 167.336 230.487 105.429 204.773C72.1783 190.97 38.1161 176.789 1.62096 166.768L0.269287 169.415C36.4941 179.436 70.5563 193.428 103.537 207.231C165.714 233.135 230.324 259.795 311.695 259.795C393.065 259.795 457.405 233.135 519.852 207.231C581.759 181.516 645.558 155.045 725.847 155.045C806.137 155.045 870.206 181.516 931.842 207.231C994.019 233.135 1058.63 259.795 1140 259.795V256.959C1059.71 256.959 995.641 230.487 934.005 204.773C871.287 178.869 806.948 152.208 725.577 152.208Z" fill="#7587C7" fill-opacity="0.02"/>
<path d="M725.578 171.308C644.207 171.308 579.868 197.968 517.42 223.872C455.514 249.587 391.715 276.058 311.425 276.058C231.136 276.058 167.337 249.587 105.43 223.872C72.1793 210.069 37.8468 195.888 1.35167 185.867L0 188.514C36.2248 198.536 70.287 212.527 103.268 226.33C165.445 252.234 230.055 278.895 311.425 278.895C392.796 278.895 457.136 252.234 519.583 226.33C581.49 200.615 645.289 174.144 725.578 174.144C805.867 174.144 869.937 200.615 931.573 226.33C993.75 252.234 1058.36 278.895 1139.73 278.895V276.058C1059.44 276.058 995.372 249.587 933.736 223.872C871.288 197.968 806.949 171.308 725.578 171.308Z" fill="#7587C7" fill-opacity="0.02"/>
<path d="M725.578 190.215C644.207 190.215 579.868 216.875 517.42 242.779C455.514 268.494 391.715 294.966 311.425 294.966C231.136 294.966 167.337 268.494 105.43 242.779C72.1793 228.977 37.8468 214.796 1.35167 204.774L0 207.421C36.2248 217.443 70.287 231.435 103.268 245.238C165.445 271.141 230.055 297.802 311.425 297.802C392.796 297.802 457.136 271.141 519.583 245.238C581.49 219.523 645.289 193.051 725.578 193.051C805.867 193.051 869.937 219.523 931.573 245.238C993.75 271.141 1058.36 297.802 1139.73 297.802V294.966C1059.44 294.966 995.372 268.494 933.736 242.779C871.288 216.875 806.949 190.215 725.578 190.215Z" fill="#7587C7" fill-opacity="0.02"/>
<path d="M725.577 209.311C644.206 209.311 579.867 235.971 517.419 261.875C455.513 287.59 391.714 314.061 311.424 314.061C231.135 314.061 167.066 287.59 105.429 261.875C72.1783 248.072 38.1161 233.891 1.62096 223.87L0.269287 226.517C36.4941 236.538 70.5563 250.53 103.537 264.333C165.714 290.237 230.324 316.897 311.695 316.897C393.065 316.897 457.405 290.237 519.852 264.333C581.759 238.618 645.558 212.147 725.847 212.147C806.137 212.147 870.206 238.618 931.842 264.333C994.019 290.237 1058.63 316.897 1140 316.897V314.061C1059.71 314.061 995.641 287.59 934.005 261.875C871.287 235.971 806.948 209.311 725.577 209.311Z" fill="#7587C7" fill-opacity="0.02"/>
<path d="M725.577 228.219C644.206 228.219 579.867 254.879 517.419 280.783C455.513 306.498 391.714 332.969 311.424 332.969C231.135 332.969 167.066 306.498 105.429 280.783C72.1783 266.981 38.1161 252.8 1.62096 242.778L0.269287 245.425C36.4941 255.447 70.5563 269.439 103.537 283.241C165.714 309.145 230.324 335.806 311.695 335.806C393.065 335.806 457.405 309.145 519.852 283.241C581.759 257.527 645.558 231.055 725.847 231.055C806.137 231.055 870.206 257.527 931.842 283.241C994.019 309.145 1058.63 335.806 1140 335.806V332.969C1059.71 332.969 995.641 306.498 934.005 280.783C871.287 255.068 806.948 228.219 725.577 228.219Z" fill="#7587C7" fill-opacity="0.02"/>
<path d="M725.577 247.317C644.206 247.317 579.867 273.978 517.419 299.882C455.513 325.407 391.714 351.879 311.424 351.879C231.135 351.879 167.066 325.407 105.429 299.693C72.1783 285.89 38.1161 271.709 1.62096 261.687L0.269287 264.335C36.4941 274.356 70.5563 288.348 103.537 302.151C165.714 328.055 230.324 354.715 311.695 354.715C393.065 354.715 457.405 328.055 519.852 302.151C581.759 276.436 645.558 249.964 725.847 249.964C806.137 249.964 870.206 276.436 931.842 302.151C994.019 328.055 1058.63 354.715 1140 354.715V351.879C1059.71 351.879 995.641 325.407 934.005 299.693C871.287 273.978 806.948 247.317 725.577 247.317Z" fill="#7587C7" fill-opacity="0.02"/>
<path d="M725.577 266.413C644.206 266.413 579.867 293.074 517.419 318.978C455.513 344.693 391.714 371.164 311.424 371.164C231.135 371.164 167.336 344.693 105.429 318.978C72.1783 305.175 38.1161 290.994 1.62096 280.973L0.269287 283.62C36.4941 293.641 70.5563 307.633 103.537 321.436C165.714 347.34 230.324 374 311.695 374C393.065 374 457.405 347.34 519.852 321.436C581.759 295.721 645.558 269.25 725.847 269.25C806.137 269.25 870.206 295.721 931.842 321.436C994.019 347.34 1058.63 374 1140 374V371.164C1059.71 371.164 995.641 344.693 934.005 318.978C871.287 293.074 806.948 266.413 725.577 266.413Z" fill="#7587C7" fill-opacity="0.02"/>
</svg>
